<?xml version="1.0" encoding="UTF-8" standalone="no"?>
<!-- Creator: CorelDRAW X8 -->

<svg
   xmlns:dc="http://purl.org/dc/elements/1.1/"
   xmlns:cc="http://creativecommons.org/ns#"
   xmlns:rdf="http://www.w3.org/1999/02/22-rdf-syntax-ns#"
   xmlns:svg="http://www.w3.org/2000/svg"
   xmlns="http://www.w3.org/2000/svg"
   xmlns:sodipodi="http://sodipodi.sourceforge.net/DTD/sodipodi-0.dtd"
   xmlns:inkscape="http://www.inkscape.org/namespaces/inkscape"
   xml:space="preserve"
   width="127"
   height="127"
   version="1.1"
   style="clip-rule:evenodd;fill-rule:evenodd;image-rendering:optimizeQuality;shape-rendering:geometricPrecision;text-rendering:geometricPrecision"
   viewBox="0 0 1186.7931 1180"
   id="svg4136"
   inkscape:version="0.91 r13725"
   sodipodi:docname="logo.svg"><metadata
   id="metadata4148"><rdf:RDF><cc:Work
       rdf:about=""><dc:format>image/svg+xml</dc:format><dc:type
         rdf:resource="http://purl.org/dc/dcmitype/StillImage" /><dc:title></dc:title></cc:Work></rdf:RDF></metadata><sodipodi:namedview
   pagecolor="#ffffff"
   bordercolor="#666666"
   borderopacity="1"
   objecttolerance="10"
   gridtolerance="10"
   guidetolerance="10"
   inkscape:pageopacity="0"
   inkscape:pageshadow="2"
   inkscape:window-width="1858"
   inkscape:window-height="1057"
   id="namedview4146"
   showgrid="false"
   inkscape:zoom="4.9107731"
   inkscape:cx="-0.42859491"
   inkscape:cy="74.635683"
   inkscape:window-x="54"
   inkscape:window-y="-8"
   inkscape:window-maximized="1"
   inkscape:current-layer="svg4136" />
 <defs
   id="defs4138">
  <style
   type="text/css"
   id="style4140">
   <![CDATA[
    .fil0 {fill:#2B2A29;fill-rule:nonzero}
   ]]>
  </style>
 </defs>
 <g
   id="Слой_x0020_1"
   transform="translate(457.89655,0)">
  <metadata
   id="CorelCorpID_0Corel-Layer" />
  <path
   class="fil0"
   d="m 45,805 c 2,33 5,60 14,92 9,26 19,47 31,70 -13,26 -24,52 -33,77 -8,22 -20,48 -29,71 -6,13 -12,27 -17,41 -1,5 -7,20 -6,24 -1,-4 5,-20 6,-24 6,-14 11,-27 17,-41 10,-24 21,-47 30,-71 9,-25 21,-50 33,-75 l 0,0 c -12,25 -24,52 -32,75 -4,12 -10,25 -14,37 5,-12 10,-24 14,-36 10,-25 21,-50 33,-74 l 0,0 c -12,25 -23,51 -31,74 -7,23 -19,49 -28,72 -6,13 -11,27 -16,41 -1,1 -1,2 -1,3 0,-1 0,-2 1,-3 5,-14 10,-27 16,-41 9,-23 21,-49 29,-71 9,-24 19,-47 30,-70 -10,22 -22,47 -29,70 -7,22 -19,49 -28,71 -6,14 -11,28 -16,42 -2,5 -4,11 -5,16 1,-6 3,-11 5,-16 5,-14 11,-28 16,-41 10,-23 21,-49 29,-72 8,-22 19,-46 30,-70 2,3 3,6 5,10 17,36 38,71 57,107 11,21 23,44 36,64 -13,-19 -25,-44 -35,-64 -17,-33 -35,-64 -51,-97 16,33 36,64 52,96 0,1 0,2 1,3 0,0 -1,-2 -1,-3 -16,-32 -34,-62 -50,-94 16,32 36,62 51,93 10,18 19,35 29,52 -10,-17 -19,-35 -28,-52 -13,-25 -27,-49 -40,-73 14,24 28,48 41,73 11,19 21,39 32,58 -11,-19 -21,-39 -32,-59 -18,-36 -39,-70 -56,-107 -3,-5 -5,-10 -8,-14 17,-36 36,-72 51,-104 12,-29 27,-57 42,-84 11,-21 33,-59 51,-74 8,-6 15,-12 21,-20 0,0 0,-1 0,-1 2,-3 4,-7 4,-12 0,-2 0,-4 -1,-6 -1,-2 -3,-4 -5,-6 -11,-9 -22,-19 -28,-32 -5,-9 -5,-15 -5,-24 -1,-21 -2,-35 -6,-56 -9,-35 -22,-59 -48,-83 -5,-4 -7,-7 -9,-12 -3,-6 -4,-11 -6,-18 -3,-13 -4,-27 -5,-40 -1,-12 -2,-24 -3,-36 0,-5 0,-9 1,-14 0,-4 1,-7 3,-10 6,-8 7,-15 8,-25 1,-9 -1,-17 -2,-26 -2,-8 -10,-32 -10,-37 2,-19 9,-32 19,-47 10,-15 20,-29 30,-43 -9,14 -21,28 -30,42 -11,16 -17,29 -20,48 0,5 8,29 9,37 2,9 3,17 3,26 -1,10 -3,16 -8,24 -2,4 -3,7 -4,11 0,5 -1,9 0,14 0,12 1,24 2,36 1,6 1,12 2,18 -1,-6 -1,-12 -2,-18 -1,-12 -2,-24 -3,-36 0,-5 0,-9 1,-14 0,-4 1,-8 3,-11 6,-8 7,-15 8,-24 0,-9 -1,-17 -3,-26 -2,-8 -9,-31 -9,-37 0,-1 0,-3 0,-3 0,1 0,2 0,3 -1,3 9,31 9,37 2,9 3,17 2,26 -1,9 -2,16 -7,23 -3,4 -4,7 -4,12 -1,5 -1,9 -1,14 0,12 2,24 3,36 0,5 0,10 1,15 -1,-5 -1,-10 -2,-15 -1,-12 -2,-24 -3,-36 0,-5 0,-10 1,-15 0,-4 1,-8 4,-11 5,-8 6,-14 7,-23 0,-9 -1,-17 -3,-26 -2,-8 -10,-31 -10,-38 2,-20 9,-33 19,-49 5,-9 11,-16 17,-24 -6,8 -12,15 -17,23 -11,17 -17,30 -20,50 0,7 8,30 10,39 2,8 3,16 2,25 0,8 -2,15 -6,22 -3,4 -4,8 -5,12 -1,5 -1,10 0,15 0,4 0,7 0,11 0,-4 0,-7 -1,-11 0,-5 0,-10 1,-15 1,-5 2,-8 4,-12 5,-7 6,-14 7,-22 0,-9 -1,-16 -3,-25 -2,-10 -10,-31 -10,-39 2,-20 9,-34 19,-51 8,-11 16,-22 23,-33 -7,11 -15,22 -23,33 -11,17 -17,30 -20,51 0,8 7,29 10,39 1,9 2,16 2,25 0,8 -2,14 -6,20 -3,5 -4,9 -5,14 -1,5 -1,10 -1,15 1,12 2,24 3,36 2,15 3,28 5,42 2,7 4,13 6,19 3,6 6,10 11,15 26,23 37,46 46,78 5,21 6,34 7,55 0,11 0,17 5,27 8,14 19,24 31,34 1,2 2,2 3,4 0,0 0,1 0,2 1,0 1,1 1,1 -1,3 -2,6 -4,9 -5,7 -12,13 -19,18 -20,17 -41,54 -54,76 -15,28 -30,56 -43,84 -14,32 -31,65 -47,99 C 82,939 73,920 65,895 56,866 53,842 50,812 c 0,-4 0,-8 0,-12 -1,-29 3,-45 13,-71 4,-9 7,-17 10,-27 2,-9 3,-16 1,-26 0,-2 -1,-4 -2,-6 -1,-1 -2,-2 -4,-3 -2,-2 -5,-3 -7,-6 -1,-1 -2,-2 -3,-4 -1,-2 -1,-4 -2,-6 -1,-9 1,-19 2,-27 3,-21 7,-39 8,-60 1,-25 -2,-48 -2,-73 0,-9 3,-17 8,-26 2,-3 4,-7 7,-10 2,-2 5,-5 7,-6 -2,1 -5,4 -7,6 -3,3 -5,6 -7,10 -5,9 -8,17 -8,26 0,25 2,48 1,73 -1,21 -5,39 -9,59 0,1 0,1 0,2 0,-1 0,-1 0,-2 4,-20 8,-38 9,-59 0,-19 -1,-36 -2,-55 1,19 2,36 1,55 0,18 -5,39 -9,58 3,-20 7,-38 8,-58 0,-25 -2,-48 -3,-73 0,-10 3,-19 8,-28 0,0 3,-4 4,-5 -2,2 -3,3 -4,5 -5,9 -8,18 -8,28 0,25 3,48 2,73 0,10 -2,22 -4,33 2,-12 3,-22 4,-33 0,-25 -3,-48 -4,-73 0,-11 4,-19 9,-29 2,-4 5,-7 8,-11 0,0 0,-1 0,-1 1,0 0,1 0,1 -3,4 -6,7 -8,11 -6,10 -9,18 -9,29 0,25 3,48 2,73 -1,20 -5,38 -8,59 -1,9 -3,19 -1,28 0,4 1,6 2,9 1,2 2,4 4,6 3,2 5,3 8,5 1,1 1,2 2,2 1,2 1,3 1,5 2,8 2,14 -1,23 -2,9 -5,17 -9,26 -10,26 -15,44 -14,73 1,2 1,3 1,5 z M 74,167 c -10,32 -20,53 -43,77 -12,14 -22,28 -28,44 -2,5 -3,8 -3,13 0,4 0,7 1,11 2,3 4,6 7,9 4,3 8,5 12,6 1,1 2,1 2,1 0,0 0,0 0,0 0,0 0,0 0,0 0,0 0,0 1,0 0,0 -1,0 -1,0 0,0 0,0 0,0 0,0 0,0 0,0 0,0 -1,-1 -2,-1 -4,-2 -8,-3 -12,-7 -3,-2 -4,-5 -6,-9 -1,-3 -1,-6 -1,-10 0,-5 1,-8 3,-12 5,-13 12,-24 21,-35 -8,11 -15,22 -20,35 -2,4 -2,8 -3,12 0,1 0,4 1,6 -1,-2 -1,-4 0,-6 0,-4 1,-8 2,-12 5,-12 12,-22 21,-33 -8,11 -15,21 -19,34 -1,4 -2,7 -2,11 0,3 0,6 1,9 2,3 3,5 6,7 2,1 4,2 6,3 -2,-1 -4,-2 -6,-4 -3,-2 -4,-3 -5,-6 -1,-3 -1,-6 -1,-9 0,-4 1,-7 2,-11 3,-8 7,-15 11,-22 -4,8 -8,14 -10,23 -1,3 -2,6 -2,10 0,3 0,5 1,8 2,3 3,4 5,6 3,2 6,3 9,4 -3,-1 -6,-2 -9,-4 -2,-2 -3,-4 -4,-6 -1,-3 -1,-5 -1,-8 0,-3 1,-6 2,-10 6,-15 16,-29 27,-41 22,-24 33,-45 42,-76 6,-19 11,-38 16,-57 4,-14 13,-31 15,-44 0,-6 1,-11 5,-17 2,-3 4,-5 8,-7 2,-1 4,-1 6,-1 3,-1 5,0 7,0 6,2 10,4 15,7 9,5 17,12 26,17 -8,-5 -16,-12 -26,-18 -5,-3 -9,-5 -15,-7 -2,0 -4,-1 -7,-1 -3,1 -4,1 -7,2 -4,2 -6,4 -9,7 -3,6 -4,11 -5,17 0,1 0,2 -1,2 1,0 1,-1 1,-2 0,-6 1,-11 5,-17 3,-4 5,-5 9,-8 2,-1 4,-1 7,-2 3,0 5,0 8,1 5,1 8,3 13,5 -5,-2 -8,-4 -13,-5 -3,-1 -5,-1 -8,-1 -3,0 -5,0 -8,2 -4,2 -6,4 -9,7 -4,6 -5,12 -6,18 0,0 0,1 0,1 0,0 0,-1 0,-1 1,-7 2,-12 5,-18 3,-4 6,-6 10,-8 3,-2 5,-3 8,-3 3,0 5,0 8,1 6,1 11,3 17,6 7,5 14,9 21,14 -7,-5 -13,-10 -21,-14 -5,-3 -10,-6 -16,-7 -4,-1 -6,-1 -9,-1 -3,0 -6,1 -9,2 -4,3 -7,5 -10,9 0,1 -2,4 -3,5 1,-2 2,-3 3,-5 3,-4 6,-6 10,-9 3,-2 5,-2 9,-3 3,0 6,0 9,1 6,1 11,3 17,7 8,4 16,10 24,15 -8,-5 -15,-11 -24,-16 -5,-4 -10,-6 -17,-8 -3,0 -6,-1 -9,0 -4,0 -7,1 -10,2 -5,3 -8,5 -11,10 -4,6 -5,12 -6,20 -1,10 -11,30 -14,42 -5,18 -9,36 -14,53 z m 131,-49 c 2,6 6,13 7,18 3,12 3,20 3,31 -1,20 -1,24 2,43 2,17 0,32 1,48 -1,12 -16,53 -21,65 -8,15 -11,28 -10,44 0,10 2,20 6,29 -4,-9 -5,-19 -6,-29 0,-16 3,-29 11,-43 7,-16 17,-44 21,-61 -4,18 -13,45 -20,61 -5,9 -7,16 -9,26 2,-10 5,-17 9,-26 8,-15 17,-42 21,-59 -4,18 -12,43 -19,60 -7,15 -10,26 -9,42 0,7 1,12 3,19 -2,-6 -2,-12 -3,-19 0,-16 3,-27 10,-41 5,-12 10,-27 14,-39 -4,12 -9,27 -14,39 -6,14 -9,26 -8,41 1,8 2,15 5,22 -3,-7 -4,-14 -4,-22 -1,-15 2,-26 9,-40 6,-14 20,-54 21,-69 0,-17 2,-31 -1,-49 -3,-18 -3,-23 -2,-41 0,-13 0,-21 -3,-33 -1,-5 -3,-8 -5,-13 -3,-7 -8,-16 -10,-23 -1,-4 -2,-8 -3,-12 0,-1 0,-2 0,-3 0,0 0,0 0,0 0,0 0,0 0,0 0,0 0,0 0,0 0,0 0,0 0,0 0,0 2,0 3,0 4,0 7,-1 11,-1 15,-2 28,-9 39,-18 6,-5 11,-10 14,-17 2,-3 3,-6 3,-10 0,-4 -1,-8 -2,-11 -3,-6 -5,-10 -9,-14 -3,-4 -6,-6 -11,-8 -10,-4 -19,-5 -30,-5 -7,0 -12,2 -18,4 -8,3 -14,7 -21,11 -6,4 -11,8 -16,14 -2,2 -4,4 -5,6 -1,2 -2,5 -2,6 0,-2 1,-4 2,-5 1,-3 3,-5 5,-7 5,-5 10,-9 17,-13 6,-5 12,-8 20,-11 6,-2 12,-4 18,-4 10,1 19,1 29,6 5,2 8,4 11,7 3,3 5,6 6,10 -2,-4 -3,-7 -6,-10 -4,-3 -7,-5 -11,-7 -10,-4 -19,-4 -29,-5 -6,0 -12,2 -18,4 -3,2 -5,3 -8,5 3,-2 5,-3 8,-4 6,-3 12,-4 18,-4 10,0 19,1 29,5 4,2 7,4 10,7 2,3 3,5 5,8 -2,-3 -3,-5 -6,-7 -3,-4 -6,-5 -10,-7 -9,-4 -18,-4 -28,-4 -6,0 -11,2 -17,4 -7,3 -13,6 -19,11 -6,4 -10,7 -15,13 -1,0 -2,2 -2,2 1,-1 1,-1 2,-2 5,-5 10,-9 15,-13 7,-4 13,-8 20,-10 5,-2 10,-4 16,-4 10,0 18,0 28,4 0,0 2,2 3,2 -1,-1 -2,-1 -4,-2 -9,-3 -18,-3 -27,-4 -6,1 -11,3 -16,5 -7,3 -13,6 -19,10 -5,4 -10,8 -14,13 -2,2 -3,4 -4,6 0,0 0,0 0,0 0,0 0,0 0,0 1,-2 2,-4 4,-6 4,-5 9,-8 15,-12 6,-4 12,-7 18,-10 5,-2 10,-4 16,-4 9,0 18,1 27,4 3,2 6,4 8,6 4,4 5,7 7,11 1,3 2,5 2,8 0,3 -1,5 -2,8 -3,6 -7,10 -12,14 -10,8 -22,14 -34,16 -1,1 -10,1 -12,1 -1,1 -2,1 -4,1 0,0 -1,1 -2,1 0,0 -1,1 -2,2 0,0 -1,1 -1,2 0,0 0,2 0,2 0,1 0,3 0,4 1,4 2,8 3,12 1,6 5,12 8,18 z m -110,847 0,-1 c 5,-10 10,-20 15,-30 -5,10 -10,20 -15,31 z m -1,-2 0,-1 c 6,-10 11,-21 16,-32 -5,10 -10,21 -16,33 z m 27,-476 c 21,30 34,39 48,76 4,13 9,19 16,29 7,14 9,24 9,39 0,21 2,41 2,62 0,-21 -1,-41 -1,-62 0,-15 -2,-25 -9,-39 0,0 -1,-1 -1,-2 0,1 1,1 1,2 8,13 9,23 9,39 1,7 1,13 1,20 0,-7 0,-13 0,-20 0,-16 -1,-26 -9,-40 0,0 0,0 0,0 0,0 0,0 0,0 8,14 10,24 10,40 1,18 2,37 3,55 0,-18 -2,-36 -2,-55 0,-10 -1,-19 -4,-29 4,10 4,19 4,29 2,20 3,39 4,59 -1,-20 -2,-39 -2,-59 0,-16 -2,-27 -10,-41 -6,-11 -12,-17 -16,-29 -13,-35 -25,-46 -46,-73 -4,-6 -7,-11 -9,-18 C 115,458 98,424 91,414 81,399 74,373 70,355 65,334 61,313 58,292 c 3,21 7,43 11,64 3,14 7,28 12,42 -5,-14 -9,-28 -13,-42 -2,-10 -4,-20 -6,-30 2,10 4,20 6,30 3,14 7,27 11,41 -5,-14 -9,-27 -12,-41 -5,-19 -9,-38 -12,-57 3,19 7,38 11,57 2,9 4,18 7,26 -3,-8 -5,-17 -8,-26 -5,-20 -9,-40 -12,-60 3,20 7,40 11,61 5,19 11,44 22,60 7,10 23,42 28,54 1,6 4,11 7,16 z M 12,547 c 0,2 0,5 0,7 1,13 3,31 7,42 2,7 2,14 2,20 0,10 -1,20 -3,30 -2,18 -5,38 -5,57 0,6 0,13 0,19 0,-6 1,-13 1,-19 0,-18 4,-39 6,-57 0,-3 0,-5 1,-7 0,2 -1,5 -1,7 -2,16 -4,32 -5,48 1,-16 4,-32 6,-48 0,-2 1,-4 1,-6 0,2 0,4 -1,6 -1,18 -4,39 -4,57 0,4 0,9 0,13 0,-4 1,-9 1,-13 -1,-16 2,-34 4,-50 -2,16 -4,34 -3,50 0,5 0,11 0,17 0,-6 0,-11 0,-17 0,-18 3,-39 5,-57 1,-10 2,-19 3,-29 0,-8 0,-15 -3,-22 -4,-12 -5,-29 -7,-41 0,-1 0,-2 0,-3 0,-6 -1,-12 -1,-18 0,-2 0,-4 0,-6 0,-1 0,-2 -1,-2 0,0 0,0 0,-1 0,0 0,0 0,0 0,0 0,0 0,0 0,0 0,-1 0,-1 0,0 -1,-1 0,-1 -1,-2 -1,-3 -1,-4 -1,-4 -1,-8 -1,-12 -1,-7 -2,-15 -2,-22 1,-12 3,-23 5,-35 1,-5 2,-10 4,-15 1,-2 2,-6 3,-8 12,-15 16,-25 26,-40 -10,14 -14,24 -26,39 -2,3 -3,6 -4,9 -2,5 -3,10 -4,15 -1,3 -2,7 -3,11 1,-4 2,-8 3,-12 1,-5 2,-9 3,-14 1,-3 2,-7 4,-9 4,-6 8,-11 12,-17 -4,6 -8,11 -12,17 -2,2 -3,6 -4,8 -2,5 -3,10 -4,15 -1,3 -2,7 -3,10 1,-3 2,-6 2,-10 1,-5 2,-10 4,-15 1,-3 2,-7 4,-9 10,-13 13,-21 21,-35 -8,13 -12,21 -22,34 -2,3 -3,7 -4,10 -1,4 -3,8 -4,13 1,-5 2,-9 4,-13 0,-4 2,-7 4,-10 11,-15 14,-23 22,-38 -9,14 -12,23 -23,37 -3,3 -4,7 -5,10 -1,5 -3,10 -4,15 -2,13 -4,24 -4,37 0,7 0,15 1,22 0,4 1,9 1,12 1,2 1,3 1,5 1,1 1,2 2,3 -1,0 -1,0 -1,-1 0,0 0,0 0,0 l 0,0 c 0,0 0,0 0,0 0,1 0,1 0,2 0,2 0,4 1,6 0,5 0,10 1,14 z"
   id="path4144"
   inkscape:connector-curvature="0"
   style="fill:#2b2a29;fill-rule:nonzero" />
 </g>
</svg>